<svg xmlns="http://www.w3.org/2000/svg" viewBox="0 0 220 200">
  <rect width="220" height="200" rx="40" fill="#EDE6D6"/>
  <rect x="70" y="150" width="14" height="34" rx="7" fill="#8C3D22"/>
  <rect x="100" y="158" width="14" height="26" rx="7" fill="#8C3D22"/>
  <rect x="130" y="158" width="14" height="26" rx="7" fill="#8C3D22"/>
  <rect x="158" y="150" width="14" height="34" rx="7" fill="#8C3D22"/>
  <g fill="#F7F2E7" stroke="#B5502F" stroke-width="3">
    <circle cx="60" cy="95" r="30"/>
    <circle cx="95" cy="72" r="34"/>
    <circle cx="135" cy="70" r="36"/>
    <circle cx="172" cy="90" r="32"/>
    <circle cx="185" cy="125" r="28"/>
    <circle cx="150" cy="140" r="34"/>
    <circle cx="105" cy="145" r="34"/>
    <circle cx="68" cy="132" r="30"/>
  </g>
  <ellipse cx="42" cy="110" rx="26" ry="24" fill="#B5502F"/>
  <ellipse cx="30" cy="98" rx="7" ry="9" fill="#8C3D22"/>
  <ellipse cx="52" cy="98" rx="7" ry="9" fill="#8C3D22"/>
  <circle cx="26" cy="99" r="2.6" fill="#F7F2E7"/>
  <circle cx="48" cy="99" r="2.6" fill="#F7F2E7"/>
  <ellipse cx="38" cy="118" rx="7" ry="5" fill="#2B2620" opacity="0.65"/>
  <circle cx="120" cy="100" r="6" fill="#C99A3C"/>
</svg>
